<svg id="Layer_1" data-name="Layer 1" xmlns="http://www.w3.org/2000/svg" xmlns:xlink="http://www.w3.org/1999/xlink" viewBox="0 0 405.78 102.2"><defs><style>.cls-1{fill:url(#linear-gradient);}.cls-2{fill:url(#linear-gradient-2);}.cls-3{fill:url(#linear-gradient-3);}.cls-4{fill:url(#linear-gradient-4);}.cls-5{fill:url(#linear-gradient-5);}.cls-6{fill:url(#linear-gradient-6);}.cls-7{fill:none;}.cls-10,.cls-11,.cls-8,.cls-9{font-size:50px;font-family:MyriadPro-Regular, Myriad Pro;}.cls-8,.cls-9{fill:#231f20;}.cls-11,.cls-8{letter-spacing:-0.02em;}.cls-9{letter-spacing:-0.02em;}.cls-10,.cls-11{fill:#0d17d9;}.cls-10{letter-spacing:-0.02em;}</style><linearGradient id="linear-gradient" x1="41.19" y1="51.56" x2="41.19" y2="81.42" gradientUnits="userSpaceOnUse"><stop offset="0" stop-color="#161cd7"/><stop offset="0.42" stop-color="#161cd7"/><stop offset="0.98" stop-color="#161cd7"/></linearGradient><linearGradient id="linear-gradient-2" x1="46.73" y1="66.28" x2="66.49" y2="66.28" gradientUnits="userSpaceOnUse"><stop offset="0" stop-color="#161cd7"/><stop offset="0.42" stop-color="#161cd7"/><stop offset="0.98" stop-color="#1a1ed6"/></linearGradient><linearGradient id="linear-gradient-3" x1="83.31" y1="66.93" x2="83.31" y2="125.36" gradientUnits="userSpaceOnUse"><stop offset="0" stop-color="#0d17d9"/><stop offset="0.42" stop-color="#0d17d9"/><stop offset="0.98" stop-color="#0d17d9"/></linearGradient><linearGradient id="linear-gradient-4" x1="-1362.58" y1="3430.06" x2="-1362.58" y2="3459.92" gradientTransform="translate(-1291.93 3481.59) rotate(180)" gradientUnits="userSpaceOnUse"><stop offset="0" stop-color="#161cd7"/><stop offset="0.42" stop-color="#0d17d9"/><stop offset="0.98" stop-color="#0d17d9"/></linearGradient><linearGradient id="linear-gradient-5" x1="-1357.05" y1="3444.78" x2="-1337.28" y2="3444.78" gradientTransform="translate(-1291.93 3481.59) rotate(180)" xlink:href="#linear-gradient"/><linearGradient id="linear-gradient-6" x1="-1320.47" y1="3445.43" x2="-1320.47" y2="3503.86" gradientTransform="translate(-1291.93 3481.59) rotate(180)" gradientUnits="userSpaceOnUse"><stop offset="0" stop-color="#1c20d5"/><stop offset="0.42" stop-color="#1c20d5"/><stop offset="0.95" stop-color="#1c20d5"/><stop offset="0.98" stop-color="#666db2"/></linearGradient></defs><path class="cls-1" d="M58.17,76.2H37A12.8,12.8,0,0,1,24.22,63.39V51H45.36V63.39a12.68,12.68,0,0,0,1.37,5.77,12.2,12.2,0,0,0,.82,1.4l.27.39a13.09,13.09,0,0,0,1.29,1.5l.43.42.48.41.43.34c.18.14.36.27.55.39l.52.34a10.48,10.48,0,0,0,1,.54,13.14,13.14,0,0,0,1.22.52l.31.11.36.12.46.13q.39.11.78.18l.42.08.27,0a3.4,3.4,0,0,0,.46.06l.26,0,.47,0Z"/><path class="cls-2" d="M66.49,56.35V76.2h-9l-.47,0-.26,0a3.4,3.4,0,0,1-.46-.06l-.27,0L55.63,76q-.39-.08-.78-.18l-.46-.13L54,75.52l-.31-.11a13.14,13.14,0,0,1-1.22-.52,10.48,10.48,0,0,1-1-.54L51,74c-.19-.12-.37-.25-.55-.39L50,73.28l-.48-.41-.43-.42A13.09,13.09,0,0,1,47.82,71l-.27-.39a12.2,12.2,0,0,1-.82-1.4h7A12.8,12.8,0,0,0,66.49,56.35Z"/><path class="cls-3" d="M100.12,102.15H79.3A12.82,12.82,0,0,1,66.49,89.34V51H87.63V89.12C87.63,98,89.55,100.86,100.12,102.15Z"/><path class="cls-4" d="M53.68,26.88H74.82A12.8,12.8,0,0,1,87.63,39.69V52H66.49V39.69a12.67,12.67,0,0,0-1.37-5.76,12.2,12.2,0,0,0-.82-1.4l-.27-.4a13.09,13.09,0,0,0-1.29-1.5l-.44-.41-.47-.41-.44-.35c-.18-.13-.35-.27-.54-.39s-.35-.23-.53-.33a10.31,10.31,0,0,0-1-.55,12.89,12.89,0,0,0-1.21-.51l-.32-.11-.35-.13L57,27.32a6.63,6.63,0,0,0-.77-.18l-.42-.08-.27,0a3.62,3.62,0,0,0-.46-.06l-.26,0-.47,0Z"/><path class="cls-5" d="M45.36,46.74V26.88h8.32l.66,0,.47,0,.26,0a3.62,3.62,0,0,1,.46.06l.27,0,.42.08a6.63,6.63,0,0,1,.77.18l.47.12.35.13.32.11a12.89,12.89,0,0,1,1.21.51,10.31,10.31,0,0,1,1,.55c.18.1.36.22.53.33s.36.26.54.39l.44.35.47.41.44.41A13.09,13.09,0,0,1,64,32.13l.27.4a12.2,12.2,0,0,1,.82,1.4h-7A12.8,12.8,0,0,0,45.36,46.74Z"/><path class="cls-6" d="M11.73.94H32.55A12.81,12.81,0,0,1,45.36,13.75V52H24.22V14C24.22,5.1,22.3,2.22,11.73.94Z"/><rect class="cls-7" x="24.44" y="17.05" width="437.13" height="68.1"/><text class="cls-8" transform="translate(101.96 68.85)">A</text><text class="cls-9" transform="translate(131.21 68.85)">r</text><text class="cls-8" transform="translate(147.56 68.85)">tistic </text><text class="cls-10" transform="translate(248.46 68.85)">C</text><text class="cls-11" transform="translate(275.71 68.85)">o</text><text class="cls-11" transform="translate(301.96 68.85)">r</text><text class="cls-11" transform="translate(317.31 68.85)">ner</text></svg>