<?xml version="1.0" encoding="utf-8"?>
<!-- Generator: Adobe Illustrator 25.2.0, SVG Export Plug-In . SVG Version: 6.00 Build 0)  -->
<svg version="1.1" id="Layer_1" xmlns="http://www.w3.org/2000/svg" xmlns:xlink="http://www.w3.org/1999/xlink" x="0px" y="0px"
	 viewBox="0 0 405.8 102.2" style="enable-background:new 0 0 405.8 102.2;" xml:space="preserve">
<style type="text/css">
	.st0{fill:url(#SVGID_1_);}
	.st1{fill:url(#SVGID_2_);}
	.st2{fill:url(#SVGID_3_);}
	.st3{fill:url(#SVGID_4_);}
	.st4{fill:url(#SVGID_5_);}
	.st5{fill:url(#SVGID_6_);}
	.st6{fill:none;}
	.st7{fill:#231F20;}
	.st8{font-family:'ArialMT';}
	.st9{font-size:50px;}
	.st10{letter-spacing:-1;}
	.st11{fill:#0D17D9;}
</style>
<linearGradient id="SVGID_1_" gradientUnits="userSpaceOnUse" x1="41.195" y1="50.3298" x2="41.195" y2="20.4698" gradientTransform="matrix(1 0 0 -1 0 101.8898)">
	<stop  offset="0" style="stop-color:#161CD7"/>
	<stop  offset="0.42" style="stop-color:#161CD7"/>
	<stop  offset="0.98" style="stop-color:#161CD7"/>
</linearGradient>
<path class="st0" d="M58.2,76.2H37c-7.1,0-12.8-5.7-12.8-12.8V51h21.1v12.4c0,2,0.5,4,1.4,5.8c0.2,0.5,0.5,1,0.8,1.4l0.3,0.4
	c0.4,0.5,0.8,1,1.3,1.5l0.4,0.4l0.5,0.4l0.4,0.3c0.2,0.1,0.4,0.3,0.5,0.4l0.5,0.3c0.3,0.2,0.7,0.4,1,0.5c0.4,0.2,0.8,0.4,1.2,0.5
	l0.3,0.1l0.4,0.1l0.5,0.1c0.3,0.1,0.5,0.1,0.8,0.2l0.4,0.1h0.3c0.2,0,0.3,0.1,0.5,0.1h0.3h0.5L58.2,76.2z"/>
<linearGradient id="SVGID_2_" gradientUnits="userSpaceOnUse" x1="46.73" y1="35.6148" x2="66.4901" y2="35.6148" gradientTransform="matrix(1 0 0 -1 0 101.8898)">
	<stop  offset="0" style="stop-color:#161CD7"/>
	<stop  offset="0.42" style="stop-color:#161CD7"/>
	<stop  offset="0.98" style="stop-color:#1A1ED6"/>
</linearGradient>
<path class="st1" d="M66.5,56.3v19.8h-9H57h-0.3c-0.2,0-0.3,0-0.5-0.1H56L55.6,76c-0.3-0.1-0.5-0.1-0.8-0.2l-0.5-0.1L54,75.5
	l-0.3-0.1c-0.4-0.2-0.8-0.3-1.2-0.5c-0.3-0.2-0.7-0.3-1-0.5L51,74c-0.2-0.1-0.4-0.2-0.5-0.4L50,73.3l-0.5-0.4l-0.4-0.4
	c-0.5-0.5-0.9-0.9-1.3-1.4l-0.3-0.4c-0.3-0.4-0.6-0.9-0.8-1.4h7C60.8,69.2,66.5,63.4,66.5,56.3C66.5,56.4,66.5,56.4,66.5,56.3z"/>
<linearGradient id="SVGID_3_" gradientUnits="userSpaceOnUse" x1="83.305" y1="34.9598" x2="83.305" y2="-23.4702" gradientTransform="matrix(1 0 0 -1 0 101.8898)">
	<stop  offset="0" style="stop-color:#0D17D9"/>
	<stop  offset="0.42" style="stop-color:#0D17D9"/>
	<stop  offset="0.98" style="stop-color:#0D17D9"/>
</linearGradient>
<path class="st2" d="M100.1,102.2H79.3c-7.1,0-12.8-5.7-12.8-12.8V51h21.1v38.1C87.6,98,89.6,100.9,100.1,102.2z"/>
<linearGradient id="SVGID_4_" gradientUnits="userSpaceOnUse" x1="-1550.5851" y1="-2588.1702" x2="-1550.5851" y2="-2618.03" gradientTransform="matrix(-1 0 0 1 -1479.9301 2639.7002)">
	<stop  offset="0" style="stop-color:#161CD7"/>
	<stop  offset="0.42" style="stop-color:#0D17D9"/>
	<stop  offset="0.98" style="stop-color:#0D17D9"/>
</linearGradient>
<path class="st3" d="M53.7,26.9h21.1c7.1,0,12.8,5.7,12.8,12.8c0,0,0,0,0,0V52H66.5V39.7c0-2-0.5-4-1.4-5.8c-0.2-0.5-0.5-1-0.8-1.4
	L64,32.1c-0.4-0.5-0.8-1-1.3-1.5l-0.4-0.4l-0.5-0.4l-0.4-0.4c-0.2-0.1-0.3-0.3-0.5-0.4s-0.3-0.2-0.5-0.3c-0.3-0.2-0.7-0.4-1-0.5
	c-0.4-0.2-0.8-0.4-1.2-0.5l-0.3-0.1l-0.3-0.1L57,27.3c-0.3-0.1-0.5-0.1-0.8-0.2l-0.4-0.1h-0.3c-0.2,0-0.3,0-0.5-0.1h-0.3h-0.5
	L53.7,26.9z"/>
<linearGradient id="SVGID_5_" gradientUnits="userSpaceOnUse" x1="-1545.05" y1="-2602.8901" x2="-1525.28" y2="-2602.8901" gradientTransform="matrix(-1 0 0 1 -1479.9301 2639.7002)">
	<stop  offset="0" style="stop-color:#161CD7"/>
	<stop  offset="0.42" style="stop-color:#161CD7"/>
	<stop  offset="0.98" style="stop-color:#161CD7"/>
</linearGradient>
<path class="st4" d="M45.4,46.7V26.9h8.3h0.7h0.5h0.3c0.2,0,0.3,0,0.5,0.1h0.3l0.4,0.1c0.3,0,0.5,0.1,0.8,0.2l0.5,0.1l0.3,0.1
	l0.3,0.1c0.4,0.1,0.8,0.3,1.2,0.5c0.3,0.2,0.7,0.3,1,0.5c0.2,0.1,0.4,0.2,0.5,0.3s0.4,0.3,0.5,0.4l0.4,0.4l0.5,0.4l0.4,0.4
	c0.5,0.5,0.9,1,1.2,1.6l0.3,0.4c0.3,0.4,0.6,0.9,0.8,1.4h-7C51,34,45.4,39.7,45.4,46.7z"/>
<linearGradient id="SVGID_6_" gradientUnits="userSpaceOnUse" x1="-1508.4751" y1="-2603.54" x2="-1508.4751" y2="-2661.9702" gradientTransform="matrix(-1 0 0 1 -1479.9301 2639.7002)">
	<stop  offset="0" style="stop-color:#1C20D5"/>
	<stop  offset="0.42" style="stop-color:#1C20D5"/>
	<stop  offset="0.95" style="stop-color:#1C20D5"/>
	<stop  offset="0.98" style="stop-color:#666DB2"/>
</linearGradient>
<path class="st5" d="M11.7,0.9h20.8c7.1,0,12.8,5.7,12.8,12.8v0V52H24.2V14C24.2,5.1,22.3,2.2,11.7,0.9z"/>
<rect x="24.4" y="17" class="st6" width="437.1" height="68.1"/>
<text transform="matrix(1 0 0 1 101.96 68.85)" class="st7 st8 st9 st10">A</text>
<text transform="matrix(1 0 0 1 131.21 68.85)" class="st7 st8 st9 st10">r</text>
<text transform="matrix(1 0 0 1 147.56 68.85)" class="st7 st8 st9 st10">t</text>
<text transform="matrix(1 0 0 1 161.46 68.85)" class="st11 st8 st9 st10">C</text>
<text transform="matrix(1 0 0 1 188.71 68.85)" class="st11 st8 st9 st10">o</text>
<text transform="matrix(1 0 0 1 214.96 68.85)" class="st11 st8 st9 st10">r</text>
<text transform="matrix(1 0 0 1 230.31 68.85)" class="st11 st8 st9 st10">ner</text>
</svg>
